<svg xmlns="http://www.w3.org/2000/svg" xmlns:xlink="http://www.w3.org/1999/xlink" viewBox="0 0 446.14 338.48"><defs><style>.cls-1,.cls-10{fill:#92e3a9;}.cls-1,.cls-19,.cls-2,.cls-20,.cls-21,.cls-22,.cls-3,.cls-4,.cls-5,.cls-6,.cls-7{stroke:#263238;}.cls-1,.cls-19,.cls-2,.cls-20,.cls-21,.cls-22,.cls-3,.cls-4,.cls-5,.cls-6,.cls-7,.cls-8{stroke-linecap:round;stroke-linejoin:round;}.cls-2,.cls-9{fill:#263238;}.cls-14,.cls-3{fill:#fff;}.cls-21,.cls-22,.cls-4,.cls-5,.cls-6,.cls-7,.cls-8{fill:none;}.cls-5{stroke-width:2px;}.cls-6{stroke-dasharray:1 3;}.cls-7{stroke-dasharray:1 2.99;}.cls-8{stroke:#fff;}.cls-11{clip-path:url(#clip-path);}.cls-12,.cls-16{fill-opacity:0.7;}.cls-12{opacity:0.3;}.cls-13{clip-path:url(#clip-path-2);}.cls-15{clip-path:url(#clip-path-3);}.cls-16{opacity:0.2;}.cls-17{clip-path:url(#clip-path-4);}.cls-18{clip-path:url(#clip-path-5);}.cls-19{fill:#757575;}.cls-20{fill:#999;}.cls-21{stroke-dasharray:0.98 2.93;}.cls-22{stroke-dasharray:1 3;}</style><clipPath id="clip-path" transform="translate(-14.66 -109.4)"><path class="cls-1" d="M401.41,422.36c-6.77,11-41.12,16.21-59.87,15.72s-72.7-26-76.36-31.44c-3.39-5-11.72-21.57,1.12-31.58a24.88,24.88,0,0,1,3.46-2.24c8.79-4.76,67.25,10.25,67.25,10.25s3.62-2.29,4.95-2.12c4.08.52,7,3.82,15.24,6.17,5.77,1.65,21.52-4.69,31.58.76a13.88,13.88,0,0,1,3.06,2.22C401.24,399.08,408.17,411.33,401.41,422.36Z"/></clipPath><clipPath id="clip-path-2" transform="translate(-14.66 -109.4)"><path class="cls-2" d="M332.16,431.92l17.52,13.75a200.72,200.72,0,0,0,25.12-3.76h0c8.3-1.92,15.55-4.67,15.94-8.45.61-5.74-5.53-7.31-12.82-7.09-1.36,0-2.76.14-4.17.28-11.67,1.25-26.51-5.19-26.51-5.19Z"/></clipPath><clipPath id="clip-path-3" transform="translate(-14.66 -109.4)"><path class="cls-3" d="M348.49,437.34c-3.16.51.31,7,4.59,5S351.65,436.82,348.49,437.34Z"/></clipPath><clipPath id="clip-path-4" transform="translate(-14.66 -109.4)"><path class="cls-3" d="M374.8,441.9c8.3-1.92,15.55-4.67,15.94-8.45.61-5.74-5.53-7.31-12.82-7.09C377.6,426.67,370.53,433.5,374.8,441.9Z"/></clipPath><clipPath id="clip-path-5" transform="translate(-14.66 -109.4)"><path class="cls-2" d="M321.39,432.45l-18.86,11.83a201.2,201.2,0,0,1-24.59-6.37h0c-8.05-2.78-15-6.28-15-10.08,0-5.78,6.27-6.69,13.5-5.71,1.35.18,2.73.43,4.12.72,11.47,2.47,26.9-2.38,26.9-2.38Z"/></clipPath></defs><g id="Floor"><line class="cls-4" x1="27.33" y1="322.26" x2="445.64" y2="322.26"/></g><g id="Graphics"><path class="cls-4" d="M447.69,266.84v-7.52l-5.64-.49a15.92,15.92,0,0,0-1.39-3.38l3.64-4.33L439,245.8l-4.32,3.64a15.41,15.41,0,0,0-3.38-1.39l-.49-5.64h-7.53l-.48,5.64a15.21,15.21,0,0,0-3.38,1.39l-4.33-3.64-5.32,5.32,3.64,4.33a15.44,15.44,0,0,0-1.4,3.38l-5.64.49v7.52l5.64.49a15.44,15.44,0,0,0,1.4,3.38L409.74,275l5.32,5.32,4.33-3.64a15.21,15.21,0,0,0,3.38,1.39l.48,5.64h7.53l.49-5.64a15.41,15.41,0,0,0,3.38-1.39l4.32,3.64L444.3,275l-3.64-4.33a15.92,15.92,0,0,0,1.39-3.38Zm-20.67,5a8.75,8.75,0,1,1,8.74-8.75A8.75,8.75,0,0,1,427,271.83Z" transform="translate(-14.66 -109.4)"/><path class="cls-4" d="M455.86,172.46a20.52,20.52,0,0,0-20-25.15,20.49,20.49,0,0,0-5.35.71,19.7,19.7,0,0,0-36.82,8.43,16.27,16.27,0,0,0-3-.28,16.1,16.1,0,0,0-16,14.28,9,9,0,0,0,.2,17.92h75.28a9,9,0,0,0,5.67-15.91Z" transform="translate(-14.66 -109.4)"/><line class="cls-4" x1="399.8" y1="72.09" x2="399.8" y2="92.84"/><line class="cls-4" x1="399.8" y1="59.65" x2="399.8" y2="67.94"/><line class="cls-4" x1="399.8" y1="51.89" x2="399.8" y2="56.33"/><polyline class="cls-4" points="395.88 90.42 399.8 95.27 403.71 90.42"/><path class="cls-4" d="M212.64,373.15a20.54,20.54,0,0,0-25.37-24.44,19.69,19.69,0,0,0-36.81,8.44,16.27,16.27,0,0,0-3-.29,16.09,16.09,0,0,0-16,14.28,9,9,0,0,0,.19,17.92H207a9,9,0,0,0,5.67-15.91Z" transform="translate(-14.66 -109.4)"/><line class="cls-4" x1="156.57" y1="275.75" x2="156.57" y2="255.01"/><line class="cls-4" x1="156.57" y1="288.2" x2="156.57" y2="279.9"/><line class="cls-4" x1="156.57" y1="295.96" x2="156.57" y2="291.52"/><polyline class="cls-4" points="160.49 257.43 156.57 252.58 152.66 257.43"/></g><g id="Interface"><path class="cls-1" d="M38.82.5H290.27a4.24,4.24,0,0,1,4.24,4.24V16.59a0,0,0,0,1,0,0H34.58a0,0,0,0,1,0,0V4.74A4.24,4.24,0,0,1,38.82.5Z"/><rect class="cls-3" x="45.95" y="19.57" width="262.71" height="184.87"/><path class="cls-3" d="M327.35,117.94a4,4,0,1,1-4-4A4,4,0,0,1,327.35,117.94Z" transform="translate(-14.66 -109.4)"/><path class="cls-3" d="M313.19,117.94a4,4,0,1,1-4-4A4,4,0,0,1,313.19,117.94Z" transform="translate(-14.66 -109.4)"/><path class="cls-3" d="M299,117.94a4,4,0,1,1-4-4A4,4,0,0,1,299,117.94Z" transform="translate(-14.66 -109.4)"/><line class="cls-5" x1="300.71" y1="27.5" x2="290.3" y2="27.5"/><line class="cls-5" x1="300.71" y1="31.72" x2="290.3" y2="31.72"/><line class="cls-5" x1="300.71" y1="35.94" x2="290.3" y2="35.94"/><line class="cls-5" x1="64.15" y1="136.58" x2="142.87" y2="136.58"/><line class="cls-5" x1="64.15" y1="142.79" x2="142.87" y2="142.79"/><line class="cls-5" x1="64.15" y1="149.12" x2="126.22" y2="149.12"/><line class="cls-4" x1="231.09" y1="21.65" x2="231.09" y2="22.15"/><line class="cls-6" x1="231.09" y1="25.15" x2="231.09" y2="199.38"/><line class="cls-4" x1="231.09" y1="200.88" x2="231.09" y2="201.38"/><line class="cls-4" x1="49.12" y1="162.98" x2="49.62" y2="162.98"/><line class="cls-7" x1="52.61" y1="162.98" x2="302.64" y2="162.98"/><line class="cls-4" x1="304.14" y1="162.98" x2="304.64" y2="162.98"/><rect class="cls-3" x="229.37" y="161.26" width="3.45" height="3.45"/><path class="cls-1" d="M66.64,199.67H17.34a2.18,2.18,0,0,0-2.18,2.17v22.95A2.18,2.18,0,0,0,17.34,227H39.47L42,236l2.53-9H66.64a2.17,2.17,0,0,0,2.18-2.17V201.84A2.17,2.17,0,0,0,66.64,199.67Z" transform="translate(-14.66 -109.4)"/><line class="cls-5" x1="8.7" y1="96.84" x2="45.95" y2="96.84"/><line class="cls-5" x1="8.7" y1="101.55" x2="45.95" y2="101.55"/><line class="cls-5" x1="8.7" y1="106.27" x2="45.95" y2="106.27"/><line class="cls-5" x1="8.7" y1="110.99" x2="36.78" y2="110.99"/><rect class="cls-2" x="78.54" y="192.19" width="53.66" height="33.63"/><rect class="cls-1" x="78.54" y="192.19" width="53.66" height="5.11"/><line class="cls-8" x1="84.01" y1="201.62" x2="97.73" y2="201.62"/><line class="cls-8" x1="90.87" y1="205.44" x2="114.61" y2="205.44"/><line class="cls-8" x1="87.84" y1="209.01" x2="94.83" y2="209.01"/><line class="cls-8" x1="90.87" y1="213.22" x2="106.86" y2="213.22"/><line class="cls-8" x1="84.01" y1="217.05" x2="97.73" y2="217.05"/><line class="cls-4" x1="217.33" y1="129.84" x2="171.26" y2="129.84"/><path class="cls-4" d="M232.88,260.54s0-21.41-23.92-21.41S185,260.54,185,260.54" transform="translate(-14.66 -109.4)"/><circle class="cls-1" cx="218.21" cy="151.14" r="2.02"/><path class="cls-1" d="M183,260.54a2,2,0,1,1,2,2A2,2,0,0,1,183,260.54Z" transform="translate(-14.66 -109.4)"/><rect class="cls-1" x="231.11" y="237.36" width="3.54" height="3.54" transform="translate(451.09 368.87) rotate(180)"/><rect class="cls-1" x="207.19" y="237.36" width="3.54" height="3.54" transform="translate(403.25 368.87) rotate(180)"/><rect class="cls-1" x="183.27" y="237.36" width="3.54" height="3.54" transform="translate(355.42 368.87) rotate(180)"/><path class="cls-1" d="M107.43,174.87v-7.08l-5.29-.45a15.09,15.09,0,0,0-1.31-3.18l3.42-4.06-5-5-4.07,3.42A14.22,14.22,0,0,0,92,157.21l-.46-5.3H84.48l-.46,5.3a14,14,0,0,0-3.17,1.31l-4.07-3.42-5,5,3.42,4.06a14.58,14.58,0,0,0-1.31,3.18l-5.3.45v7.08l5.3.45a14.78,14.78,0,0,0,1.31,3.18l-3.42,4.06,5,5,4.07-3.42A14,14,0,0,0,84,185.45l.46,5.3h7.07l.46-5.3a14.22,14.22,0,0,0,3.17-1.31l4.07,3.42,5-5-3.42-4.06a15.31,15.31,0,0,0,1.31-3.18ZM88,179.55a8.22,8.22,0,1,1,8.22-8.22A8.22,8.22,0,0,1,88,179.55Z" transform="translate(-14.66 -109.4)"/><path class="cls-1" d="M131.47,190.73v-4.84l-3.63-.32a9.81,9.81,0,0,0-.89-2.17l2.34-2.78-3.43-3.42-2.78,2.34a10.34,10.34,0,0,0-2.17-.9L120.6,175h-4.84l-.32,3.63a10.34,10.34,0,0,0-2.17.9l-2.78-2.34-3.43,3.42,2.35,2.78a9.38,9.38,0,0,0-.9,2.17l-3.63.32v4.84l3.63.31a9.2,9.2,0,0,0,.9,2.17L107.06,196l3.43,3.42,2.78-2.34a10.34,10.34,0,0,0,2.17.9l.32,3.62h4.84l.31-3.62a10.34,10.34,0,0,0,2.17-.9l2.78,2.34,3.43-3.42L127,193.21a9.61,9.61,0,0,0,.89-2.17Zm-13.29,3.2a5.63,5.63,0,1,1,5.62-5.62A5.63,5.63,0,0,1,118.18,193.93Z" transform="translate(-14.66 -109.4)"/><line class="cls-5" x1="240.98" y1="174.74" x2="279.71" y2="174.74"/><line class="cls-5" x1="240.98" y1="180.95" x2="279.71" y2="180.95"/><line class="cls-5" x1="240.98" y1="187.28" x2="263.05" y2="187.28"/><path class="cls-1" d="M204.61,299.25H184.22a5,5,0,0,1-5-5h0a5,5,0,0,1,5-5h20.39a5,5,0,0,1,5,5h0A5,5,0,0,1,204.61,299.25Z" transform="translate(-14.66 -109.4)"/><path class="cls-1" d="M242.61,299.25H222.22a5,5,0,0,1-5-5h0a5,5,0,0,1,5-5h20.39a5,5,0,0,1,5,5h0A5,5,0,0,1,242.61,299.25Z" transform="translate(-14.66 -109.4)"/><rect class="cls-3" x="243.81" y="82.57" width="43.24" height="43.24"/><line class="cls-3" x1="243.81" y1="82.57" x2="287.05" y2="125.81"/><line class="cls-3" x1="287.05" y1="82.57" x2="243.81" y2="125.81"/><rect class="cls-2" x="280.34" y="56.88" width="53.66" height="33.63"/><rect class="cls-1" x="280.34" y="56.88" width="53.66" height="5.11"/><line class="cls-8" x1="285.82" y1="66.3" x2="299.53" y2="66.3"/><line class="cls-8" x1="292.68" y1="70.13" x2="316.41" y2="70.13"/><line class="cls-8" x1="289.64" y1="73.7" x2="296.63" y2="73.7"/><line class="cls-8" x1="292.68" y1="77.91" x2="308.66" y2="77.91"/><line class="cls-8" x1="285.82" y1="81.73" x2="299.53" y2="81.73"/><polygon class="cls-3" points="260.77 33.48 260.77 43.57 256.32 48.02 246.23 48.02 246.23 33.48 260.77 33.48"/><polygon class="cls-3" points="260.77 43.57 256.32 48.02 256.32 43.57 260.77 43.57"/><polygon class="cls-3" points="106.13 111.52 106.13 121.61 101.68 126.06 91.59 126.06 91.59 111.52 106.13 111.52"/><polygon class="cls-3" points="106.13 121.61 101.68 126.06 101.68 121.61 106.13 121.61"/><polygon class="cls-3" points="51.19 173.68 51.19 183.77 46.74 188.22 36.65 188.22 36.65 173.68 51.19 173.68"/><polygon class="cls-3" points="51.19 183.77 46.74 188.22 46.74 183.77 51.19 183.77"/></g><g id="Character"><path class="cls-3" d="M247.87,221.58c-5.29.45-12-5.87-12-5.87a1.19,1.19,0,0,1-1.89-.24c-.86-1.24-4.59-4.11-4.8-6.59s4.19-6.5,4.19-6.5c-3.39.92-3.75-1.07-3.75-1.07s5.71-4.71,7.71-4.84c.78-.05,4.18,1.91,7.47,4.55,3.44,2.77,9.9,12.52,9.9,12.52s21.85,15.87,27.37,19.93c7.29,5.36,15.93,14.87,15.93,14.87s29,13.08,37,20.27l-10.82,25.62s-26.37-17.67-29-22.15-5.27-1.79-7.91-4.72-5.17-6.28-5.17-6.28A44.58,44.58,0,0,1,269.51,252c-6.16-6.33-11.59-16-15-21.82A36,36,0,0,0,247.87,221.58Z" transform="translate(-14.66 -109.4)"/><path class="cls-3" d="M249.48,217.84s-7.87-1.91-8.55-7.1a9.55,9.55,0,0,0-1.69-3.63s-7.34-.36-6.88-3.35l9.8-.87a17.06,17.06,0,0,1,8.53,7.18" transform="translate(-14.66 -109.4)"/><path class="cls-4" d="M235.86,215.71a3.22,3.22,0,0,0,.33-2.12s2.16-.4,1.92-2.31c0,0,3.2-.39,1.13-4.17" transform="translate(-14.66 -109.4)"/><path class="cls-4" d="M238.11,211.28s-4.31-3.19-4.79-4.65" transform="translate(-14.66 -109.4)"/><path class="cls-4" d="M236.19,213.59s-4.59-2.8-4.67-4.43" transform="translate(-14.66 -109.4)"/><path class="cls-4" d="M237.24,199.21s-1.46,2.62-3.88,3.17" transform="translate(-14.66 -109.4)"/><path class="cls-4" d="M236.51,200.23a12.55,12.55,0,0,1,2.16,1.43" transform="translate(-14.66 -109.4)"/><path class="cls-9" d="M404.12,288.8a236.19,236.19,0,0,0-34.91-11.66c-17.56-4.11-46-7.78-46-7.78s7.82,79.8,5.76,84.6-14.42,20.92-14.42,20.92,66.89,26.08,78.55,28.3,5.58-38.25,5.58-38.25S411,313.49,404.12,288.8Z" transform="translate(-14.66 -109.4)"/><path class="cls-3" d="M380.11,280.23s1.59,3-2.59,4.57c-10.83,4-22.37.47-21.14-3.77.47-1.62,3.15,0,3-6a7.37,7.37,0,0,0-.73-2.66,27.47,27.47,0,0,0-2.75-4.61,57.26,57.26,0,0,0-3.71-4.63s17.19-11,29.94,0C382.11,263.08,377.37,265.48,380.11,280.23Z" transform="translate(-14.66 -109.4)"/><path class="cls-10" d="M401.41,422.36c-6.77,11-41.12,16.21-59.87,15.72s-72.7-26-76.36-31.44c-3.39-5-11.72-21.57,1.12-31.58a24.88,24.88,0,0,1,3.46-2.24c8.79-4.76,67.25,10.25,67.25,10.25s3.62-2.29,4.95-2.12c4.08.52,7,3.82,15.24,6.17,5.77,1.65,21.52-4.69,31.58.76a13.88,13.88,0,0,1,3.06,2.22C401.24,399.08,408.17,411.33,401.41,422.36Z" transform="translate(-14.66 -109.4)"/><g class="cls-11"><path class="cls-12" d="M388.78,387.88c-10.31-.69-19.5,1.47-25.92,5.26-7.61,4.5-43.55,21.81-43.55,21.81.08-1.86,2.08-5.61,2.08-5.61-3.38-3-12.22-5.35-12.22-5.35-6.85-5.85-34-23.3-42.87-28.93a24.88,24.88,0,0,1,3.46-2.24c8.79-4.76,67.25,10.25,67.25,10.25s3.62-2.29,4.95-2.12c4.08.52,7,3.82,15.24,6.17C363,388.77,378.72,382.43,388.78,387.88Z" transform="translate(-14.66 -109.4)"/></g><path class="cls-4" d="M401.41,422.36c-6.77,11-41.12,16.21-59.87,15.72s-72.7-26-76.36-31.44c-3.39-5-11.72-21.57,1.12-31.58a24.88,24.88,0,0,1,3.46-2.24c8.79-4.76,67.25,10.25,67.25,10.25s3.62-2.29,4.95-2.12c4.08.52,7,3.82,15.24,6.17,5.77,1.65,21.52-4.69,31.58.76a13.88,13.88,0,0,1,3.06,2.22C401.24,399.08,408.17,411.33,401.41,422.36Z" transform="translate(-14.66 -109.4)"/><path class="cls-3" d="M390.87,432.32l.86,3.77s-2.3,6.52-12.41,7.59-16.1,3.3-21,3.59a40.82,40.82,0,0,1-7.69-.12l-1-1.48Z" transform="translate(-14.66 -109.4)"/><path class="cls-9" d="M332.16,431.92l17.52,13.75a200.72,200.72,0,0,0,25.12-3.76h0c8.3-1.92,15.55-4.67,15.94-8.45.61-5.74-5.53-7.31-12.82-7.09-1.36,0-2.76.14-4.17.28-11.67,1.25-26.51-5.19-26.51-5.19Z" transform="translate(-14.66 -109.4)"/><g class="cls-13"><path class="cls-12" d="M390.75,433.32a53.46,53.46,0,0,0-9.74,4.8s-16.27,8.37-41.28-.25l-7.57-5.95,15.08-10.47s14.83,6.45,26.51,5.19c1.41-.15,2.81-.25,4.17-.28C385.16,426.14,391.25,427.68,390.75,433.32Z" transform="translate(-14.66 -109.4)"/></g><path class="cls-4" d="M332.16,431.92l17.52,13.75a200.72,200.72,0,0,0,25.12-3.76h0c8.3-1.92,15.55-4.67,15.94-8.45.61-5.74-5.53-7.31-12.82-7.09-1.36,0-2.76.14-4.17.28-11.67,1.25-26.51-5.19-26.51-5.19Z" transform="translate(-14.66 -109.4)"/><path class="cls-14" d="M348.49,437.34c-3.16.51.31,7,4.59,5S351.65,436.82,348.49,437.34Z" transform="translate(-14.66 -109.4)"/><g class="cls-15"><path class="cls-16" d="M354.42,441.31a66.94,66.94,0,0,1-6.81-1.19c-.6-1.27-.46-2.57.88-2.78C351.14,436.9,355.6,439.35,354.42,441.31Z" transform="translate(-14.66 -109.4)"/></g><path class="cls-4" d="M348.49,437.34c-3.16.51.31,7,4.59,5S351.65,436.82,348.49,437.34Z" transform="translate(-14.66 -109.4)"/><path class="cls-14" d="M374.8,441.9c8.3-1.92,15.55-4.67,15.94-8.45.61-5.74-5.53-7.31-12.82-7.09C377.6,426.67,370.53,433.5,374.8,441.9Z" transform="translate(-14.66 -109.4)"/><g class="cls-17"><path class="cls-12" d="M390.75,433.32a53.46,53.46,0,0,0-9.74,4.8,32.78,32.78,0,0,1-6.85,2.29c-2.8-7.7,3.46-13.76,3.76-14.05C385.16,426.14,391.25,427.68,390.75,433.32Z" transform="translate(-14.66 -109.4)"/></g><path class="cls-4" d="M374.8,441.9c8.3-1.92,15.55-4.67,15.94-8.45.61-5.74-5.53-7.31-12.82-7.09C377.6,426.67,370.53,433.5,374.8,441.9Z" transform="translate(-14.66 -109.4)"/><path class="cls-3" d="M368.88,434.77h.05a.86.86,0,0,0,.9-.83,11.78,11.78,0,0,1,3-6.59.86.86,0,0,0,0-1.22.87.87,0,0,0-1.22,0,13.36,13.36,0,0,0-3.47,7.71A.86.86,0,0,0,368.88,434.77Z" transform="translate(-14.66 -109.4)"/><path class="cls-3" d="M365.41,435h.07a.86.86,0,0,0,.88-.85,12.84,12.84,0,0,1,2.66-6.86.87.87,0,1,0-1.34-1.1,14.48,14.48,0,0,0-3.05,7.92A.86.86,0,0,0,365.41,435Z" transform="translate(-14.66 -109.4)"/><path class="cls-3" d="M361.26,434.54h0a.86.86,0,0,0,.94-.78c.27-3,2.85-6.93,2.88-7a.88.88,0,0,0-.24-1.21.87.87,0,0,0-1.2.24c-.12.17-2.86,4.29-3.17,7.77A.87.87,0,0,0,361.26,434.54Z" transform="translate(-14.66 -109.4)"/><path class="cls-3" d="M357.34,434.13a.91.91,0,0,0,.23,0,.86.86,0,0,0,.71-1c-.61-3.68,2.81-6.83,2.84-6.86A.87.87,0,0,0,360,425c-.17.15-4.16,3.81-3.39,8.44A.88.88,0,0,0,357.34,434.13Z" transform="translate(-14.66 -109.4)"/><path class="cls-3" d="M353.08,433.1a.88.88,0,0,0,.28,0,.87.87,0,0,0,.65-1c-.75-3.28,2.48-7,2.52-7a.87.87,0,0,0-.08-1.22.86.86,0,0,0-1.22.07c-.16.18-3.86,4.41-2.91,8.57A.86.86,0,0,0,353.08,433.1Z" transform="translate(-14.66 -109.4)"/><path class="cls-3" d="M263,426.68l-1.25,3.66s1.6,6.73,11.54,8.85,15.66,5,20.46,5.78a41.19,41.19,0,0,0,7.66.68l1.15-1.37Z" transform="translate(-14.66 -109.4)"/><path class="cls-9" d="M321.39,432.45l-18.86,11.83a201.2,201.2,0,0,1-24.59-6.37h0c-8.05-2.78-15-6.28-15-10.08,0-5.78,6.27-6.69,13.5-5.71,1.35.18,2.73.43,4.12.72,11.47,2.47,26.9-2.38,26.9-2.38Z" transform="translate(-14.66 -109.4)"/><g class="cls-18"><path class="cls-12" d="M321.39,432.45l-11.09,7a44.86,44.86,0,0,1-22.54-15.87,75.09,75.09,0,0,0,19.73-3.09Z" transform="translate(-14.66 -109.4)"/></g><path class="cls-4" d="M321.39,432.45l-18.86,11.83a201.2,201.2,0,0,1-24.59-6.37h0c-8.05-2.78-15-6.28-15-10.08,0-5.78,6.27-6.69,13.5-5.71,1.35.18,2.73.43,4.12.72,11.47,2.47,26.9-2.38,26.9-2.38Z" transform="translate(-14.66 -109.4)"/><path class="cls-3" d="M277.94,437.9c-8.05-2.78-15-6.28-15-10.08,0-5.78,6.27-6.69,13.5-5.71C276.76,422.45,283.07,430,277.94,437.9Z" transform="translate(-14.66 -109.4)"/><path class="cls-3" d="M284.58,431.43h-.05a.88.88,0,0,1-.82-.92,11.73,11.73,0,0,0-2.27-6.86.87.87,0,1,1,1.36-1.07,13.27,13.27,0,0,1,2.64,8A.86.86,0,0,1,284.58,431.43Z" transform="translate(-14.66 -109.4)"/><path class="cls-3" d="M288,432h-.08a.87.87,0,0,1-.79-.94,12.77,12.77,0,0,0-1.91-7.09.87.87,0,1,1,1.44-1,14.33,14.33,0,0,1,2.2,8.2A.87.87,0,0,1,288,432Z" transform="translate(-14.66 -109.4)"/><path class="cls-3" d="M292.18,432h0a.88.88,0,0,1-.86-.88c.06-3.05-2.1-7.18-2.13-7.22a.88.88,0,0,1,.37-1.18.87.87,0,0,1,1.17.37c.1.18,2.39,4.56,2.33,8.06A.87.87,0,0,1,292.18,432Z" transform="translate(-14.66 -109.4)"/><path class="cls-3" d="M296.12,432l-.23,0a.87.87,0,0,1-.6-1.07c1-3.59-2.07-7.09-2.1-7.12a.87.87,0,1,1,1.29-1.16c.15.17,3.74,4.23,2.48,8.75A.88.88,0,0,1,296.12,432Z" transform="translate(-14.66 -109.4)"/><path class="cls-3" d="M300.47,431.43a.66.66,0,0,1-.28-.05.85.85,0,0,1-.54-1.1c1.09-3.18-1.74-7.21-1.76-7.25a.87.87,0,1,1,1.41-1c.14.19,3.37,4.79,2,8.83A.88.88,0,0,1,300.47,431.43Z" transform="translate(-14.66 -109.4)"/><path class="cls-3" d="M304.58,436.12c3.09.85-1,6.9-5.09,4.5S301.5,435.28,304.58,436.12Z" transform="translate(-14.66 -109.4)"/><path class="cls-1" d="M268.92,404c4.63,6.49,18.36,13.66,32,19.57a64.23,64.23,0,0,0,8.58,11.21c8.42,8.66,11.85,3.81,11.85,3.81s5.32-.6,13.17-1.67a3.75,3.75,0,0,0,4,2.23c1-.16,3-1.62,5.21-3.55,19.83-3,46.74-8,54-13.82" transform="translate(-14.66 -109.4)"/><path class="cls-4" d="M390,391.64c-3.43-3.77-6.86-3.94-14.06-3.43,0,0-18.79,6-31.9,13.89s-32.23,16.26-32.23,16.26-5.83-1.69-9.89,0c0,0-2.85.22-.94,5.2" transform="translate(-14.66 -109.4)"/><path class="cls-4" d="M398.72,414.17s.1,5.81-8.14,9.83" transform="translate(-14.66 -109.4)"/><path class="cls-4" d="M307.84,389.93s13,9.4,15.61,15.6a53.53,53.53,0,0,1,7.38,3.81" transform="translate(-14.66 -109.4)"/><path class="cls-4" d="M324.39,397.74a15,15,0,0,1,.46,8.41" transform="translate(-14.66 -109.4)"/><path class="cls-4" d="M321.39,391.64a22.74,22.74,0,0,1,1.86,3.25" transform="translate(-14.66 -109.4)"/><path class="cls-4" d="M339.91,390.78s4.35,5.82,5.43,10.54" transform="translate(-14.66 -109.4)"/><path class="cls-4" d="M364.14,425.94a37.33,37.33,0,0,0,4.82-.6" transform="translate(-14.66 -109.4)"/><path class="cls-4" d="M323.33,421.77a231.67,231.67,0,0,0,37.39,4.29" transform="translate(-14.66 -109.4)"/><path class="cls-3" d="M411.32,333.59s-2.35,41-5.12,43.35-7.14,3.08-15.41,3.77-44.85,2.93-44.85,2.93L342,371.89s19.45-2,28.08-5.15A144.73,144.73,0,0,1,390,361.48s-1.64-10.31-1.64-14.75V325.85" transform="translate(-14.66 -109.4)"/><path class="cls-9" d="M404.12,288.8c8.91,5.49,11.54,18.18,8.46,45.27,0,0,2.63,3.2-1.26,4.8,0,0-14.57-5.45-21.34-1.69s-5-5.19-5-5.19-2.79-24.92,3.38-29.43" transform="translate(-14.66 -109.4)"/><path class="cls-8" d="M387.54,298.75s-8.57,8.91-1,31.43a36.74,36.74,0,0,0-1,5.6c0,1.51,2.07,2.29,2.07,2.29" transform="translate(-14.66 -109.4)"/><path class="cls-8" d="M377.52,313.84s.62,11,7.44,15.77" transform="translate(-14.66 -109.4)"/><path class="cls-8" d="M379.72,288.3s-13.29,5.09-23.86-.55c-6.27-3.34-3.69-8.71-3.69-8.71" transform="translate(-14.66 -109.4)"/><path class="cls-19" d="M284.15,391.66h72.34a18.85,18.85,0,0,0,4.84-.63l14.27-3.74a.92.92,0,0,0,.69-.89h0a.93.93,0,0,0-.93-.93h-94.2a.93.93,0,0,0-.92.93v1.35A3.91,3.91,0,0,0,284.15,391.66Z" transform="translate(-14.66 -109.4)"/><path class="cls-20" d="M277,388.06h72.54a1.72,1.72,0,0,0,1.69-2.32l-13.45-52.33a3.2,3.2,0,0,0-2.9-2.33H262.32a1.73,1.73,0,0,0-1.69,2.33l13.46,52.33A3.18,3.18,0,0,0,277,388.06Z" transform="translate(-14.66 -109.4)"/><line class="cls-4" x1="250.22" y1="223.54" x2="248.85" y2="223.54"/><line class="cls-4" x1="260.85" y1="223.54" x2="253.76" y2="223.54"/><path class="cls-4" d="M347.78,381.45,335.9,335.27a3.19,3.19,0,0,0-2.89-2.33h-55.9" transform="translate(-14.66 -109.4)"/><line class="cls-4" x1="334.15" y1="276.08" x2="333.85" y2="274.92"/><path class="cls-3" d="M298.81,360.89a7.14,7.14,0,0,0,.26,1.25c.92,3.15,3.87,5.07,6.58,4.27s4.16-4,3.24-7.15-3.89-5.07-6.6-4.27a4.62,4.62,0,0,0-.91.39A5.59,5.59,0,0,1,298.81,360.89Z" transform="translate(-14.66 -109.4)"/><path class="cls-9" d="M330.83,262.82c-6.28-.68-9.7-6.65-13.48-7.58a41.65,41.65,0,0,1-6.18-2s-1.3-4.54-3.25-3-4.51,35.5-2,34.43,2.52,2.94,2.52,2.94l23.31,20.54,19.54-34.6S337.11,263.51,330.83,262.82Z" transform="translate(-14.66 -109.4)"/><polyline class="cls-4" points="126.22 32.49 126.22 31.99 126.72 31.99"/><line class="cls-21" x1="129.66" y1="31.99" x2="214.25" y2="31.99"/><polyline class="cls-4" points="215.72 31.99 216.22 31.99 216.22 32.49"/><line class="cls-22" x1="216.22" y1="35.49" x2="216.22" y2="89.99"/><polyline class="cls-4" points="216.22 91.49 216.22 91.99 215.72 91.99"/><line class="cls-21" x1="212.79" y1="91.99" x2="128.19" y2="91.99"/><polyline class="cls-4" points="126.72 91.99 126.22 91.99 126.22 91.49"/><line class="cls-22" x1="126.22" y1="88.49" x2="126.22" y2="33.99"/><circle class="cls-1" cx="171.22" cy="31.99" r="1.48"/><circle class="cls-1" cx="126.22" cy="61.99" r="1.48"/><circle class="cls-1" cx="171.22" cy="91.99" r="1.48"/><circle class="cls-1" cx="216.22" cy="61.99" r="1.48"/><rect class="cls-1" x="214.5" y="90.27" width="3.45" height="3.45"/><rect class="cls-1" x="214.5" y="30.27" width="3.45" height="3.45"/><rect class="cls-1" x="124.5" y="90.27" width="3.45" height="3.45"/><rect class="cls-1" x="124.5" y="30.27" width="3.45" height="3.45"/><rect class="cls-3" x="132.19" y="37.3" width="78.33" height="49.77"/><polygon class="cls-1" points="210.52 72.37 201.81 81.08 178.26 57.52 168.35 67.43 152.54 51.63 132.19 71.97 132.19 87.07 210.52 87.07 210.52 72.37"/><circle class="cls-1" cx="194.29" cy="51.43" r="5.53"/><path class="cls-8" d="M335,272s-6,11.17-6.71,28.26" transform="translate(-14.66 -109.4)"/><path class="cls-8" d="M317.36,279.73s1.79,9.5,7,16.38" transform="translate(-14.66 -109.4)"/><path class="cls-8" d="M342,318.93s9,29.56,28.55,38.26" transform="translate(-14.66 -109.4)"/><path class="cls-9" d="M365.68,265.42s-.85,6.45-7.05,6.9a27.47,27.47,0,0,0-2.75-4.61A86.58,86.58,0,0,1,365.68,265.42Z" transform="translate(-14.66 -109.4)"/><path class="cls-3" d="M378.89,265.87s10.37,1.27,14.71-12.65.93-24.41-16.23-29.46c-9.52-2.8-19-.55-22.47,6.66-2.94,6.17-1.55,11.3-2.22,13.37-.76,2.32-7.78,4.29-7.78,5.88,0,1.31,3.89,3.55,3.89,3.55l-1.14,3.46,1.07.57s-2,7.79-1.07,10.54c.66,2,18.23,2.84,19.6-2.14" transform="translate(-14.66 -109.4)"/><path class="cls-4" d="M355,235.47s3.43.86,4.37,2.66" transform="translate(-14.66 -109.4)"/><path class="cls-9" d="M355.6,243.38c-.15,1,.08,1.87.52,1.93s.9-.7,1.05-1.71-.09-1.87-.52-1.93S355.75,242.37,355.6,243.38Z" transform="translate(-14.66 -109.4)"/><path class="cls-4" d="M348.72,257.25s5.58,2.14,7.66.85" transform="translate(-14.66 -109.4)"/><path class="cls-4" d="M350.68,242.58c-.41,2.24.09,4.2,1.12,4.39s2.21-1.46,2.62-3.69-.08-4.21-1.12-4.4S351.1,240.35,350.68,242.58Z" transform="translate(-14.66 -109.4)"/><path class="cls-9" d="M394.06,231.19a16.5,16.5,0,0,0-6.52-10.06A30.51,30.51,0,0,0,375,216s3.31,1.45,4.57,3.36c0,0-8.57-6.44-18.75-2.21s-8.91,15.22-8.91,15.22l1.48-2.88s-.17,3.43,1.63,4.69a22.52,22.52,0,0,1,2.19-4.8s2.7,8.11,10.13,10.86a5.9,5.9,0,0,1-.12-4s4.12,8.91,2.92,13.26l1.31,2.28s4.73-4.79,8.58-.8c2.21,2.3-4.23,11-5.15,11l3.89,5.71s9.72,1.39,15.32-9.14,4.23-15,4.23-15,1.83,2.56,2,4C400.34,247.53,402,236.22,394.06,231.19Z" transform="translate(-14.66 -109.4)"/><path class="cls-3" d="M371.19,252.79s3-10.08,9.38-6.53,1.83,8.93-.46,11-4,5.83-5.49,5.83-1.82-1.83-1.82-1.83" transform="translate(-14.66 -109.4)"/><line class="cls-4" x1="339.76" y1="133.88" x2="357.56" y2="137.57"/></g></svg>